CD_DA
CD_TEXT { LANGUAGE_MAP { 0:EN }
    LANGUAGE 0 {
        TITLE "Samurai"
        PERFORMER "Juno Reactor"
        DISC_ID "30086B05"
}}

//Track 1
TRACK AUDIO
    CD_TEXT { LANGUAGE 0 {
        TITLE "Samurai"
        PERFORMER "Juno Reactor"
    }}
    PREGAP 00:00:50
    AUDIOFILE "01 - Samurai.wav" 00:00:00 08:17:15

//Track 2
TRACK AUDIO
    CD_TEXT { LANGUAGE 0 {
        TITLE "Samurai (Total Eclipse Remix)"
        PERFORMER "Juno Reactor"
    }}
    AUDIOFILE "01 - Samurai.wav" 08:17:15
    START
    AUDIOFILE "02 - Samurai (Total Eclipse Remix).wav" 00:00:00 05:11:10

//Track 3
TRACK AUDIO
    CD_TEXT { LANGUAGE 0 {
        TITLE "Feel The Universe (Kox Box Remix)"
        PERFORMER "Juno Reactor"
    }}
    AUDIOFILE "02 - Samurai (Total Eclipse Remix).wav" 05:11:10
    START
    AUDIOFILE "03 - Feel The Universe (Kox Box Remix).wav" 00:00:00 07:46:17

//Track 4
TRACK AUDIO
    CD_TEXT { LANGUAGE 0 {
        TITLE "Magnetic (Robert Liener Remix)"
        PERFORMER "Juno Reactor"
    }}
    AUDIOFILE "03 - Feel The Universe (Kox Box Remix).wav" 07:46:17
    START
    AUDIOFILE "04 - Magnetic (Robert Liener Remix).wav" 00:00:00 08:07:10

//Track 5
TRACK AUDIO
    CD_TEXT { LANGUAGE 0 {
        TITLE "Labyrinth"
        PERFORMER "Juno Reactor"
    }}
    AUDIOFILE "04 - Magnetic (Robert Liener Remix).wav" 08:07:10
    START
    AUDIOFILE "05 - Labyrinth.wav" 00:00:00
